<?xml version="1.0" encoding="UTF-8"?>
<svg xmlns="http://www.w3.org/2000/svg" xmlns:xlink="http://www.w3.org/1999/xlink" width="50px" height="50px" viewBox="0 0 50 50" version="1.1">
<g id="surface1">
<path style=" stroke:none;fill-rule:nonzero;fill:rgb(98.823529%,76.47059%,29.019609%);fill-opacity:1;" d="M 42.296875 33.429688 L 22.378906 33.429688 C 20.429688 33.429688 18.84375 31.757812 18.84375 29.703125 C 18.84375 27.644531 20.429688 25.972656 22.378906 25.972656 L 42.296875 25.972656 C 44.246094 25.972656 45.832031 27.644531 45.832031 29.703125 C 45.832031 31.757812 44.246094 33.429688 42.296875 33.429688 Z M 42.296875 33.429688 "/>
<path style=" stroke:none;fill-rule:nonzero;fill:rgb(6.666667%,2.352941%,21.960784%);fill-opacity:1;" d="M 24.203125 50 C 20.863281 50 18.003906 48.890625 15.933594 46.789062 L 7.394531 38.078125 C 5.316406 35.960938 4.167969 32.957031 4.167969 29.613281 C 4.167969 26.328125 5.316406 23.347656 7.398438 21.230469 L 27.230469 1.058594 C 28.605469 -0.335938 31.039062 -0.300781 32.453125 1.136719 C 33.898438 2.605469 33.929688 4.964844 32.523438 6.394531 L 28.851562 10.175781 C 30.214844 10.734375 31.4375 11.550781 32.476562 12.589844 L 37.605469 17.863281 C 39.007812 19.289062 38.972656 21.644531 37.523438 23.113281 C 36.804688 23.847656 35.855469 24.25 34.851562 24.25 C 33.882812 24.25 32.984375 23.871094 32.308594 23.191406 L 27.027344 17.996094 C 26.359375 17.316406 25.402344 16.976562 24.179688 16.976562 C 22.917969 16.976562 21.953125 17.304688 21.316406 17.953125 L 12.839844 26.691406 C 12.128906 27.417969 11.757812 28.421875 11.757812 29.609375 C 11.757812 30.808594 12.148438 31.902344 12.835938 32.601562 L 21.34375 41.3125 C 22 41.980469 22.957031 42.320312 24.179688 42.320312 C 25.40625 42.320312 26.359375 41.980469 27.015625 41.3125 L 32.324219 36.09375 C 32.980469 35.425781 33.878906 35.046875 34.84375 35.046875 C 34.847656 35.046875 34.847656 35.046875 34.847656 35.046875 C 35.855469 35.046875 36.804688 35.449219 37.527344 36.183594 C 38.972656 37.652344 39.007812 40.011719 37.601562 41.4375 L 32.484375 46.699219 C 30.386719 48.828125 27.449219 50 24.203125 50 Z M 29.769531 2.082031 C 29.367188 2.082031 28.992188 2.238281 28.714844 2.519531 L 8.882812 22.691406 C 7.183594 24.417969 6.25 26.875 6.25 29.613281 C 6.25 32.410156 7.183594 34.894531 8.886719 36.621094 L 17.421875 45.332031 C 19.085938 47.019531 21.433594 47.917969 24.203125 47.917969 C 26.886719 47.917969 29.296875 46.96875 30.992188 45.246094 L 36.109375 39.984375 C 36.726562 39.359375 36.691406 38.308594 36.039062 37.648438 C 35.714844 37.316406 35.289062 37.132812 34.847656 37.132812 C 34.847656 37.132812 34.847656 37.132812 34.84375 37.132812 C 34.445312 37.136719 34.074219 37.289062 33.796875 37.570312 L 28.488281 42.789062 C 27.453125 43.84375 25.957031 44.410156 24.179688 44.410156 C 22.398438 44.410156 20.902344 43.84375 19.855469 42.773438 L 11.347656 34.0625 C 10.265625 32.964844 9.667969 31.382812 9.667969 29.613281 C 9.667969 27.894531 10.265625 26.339844 11.347656 25.238281 L 19.820312 16.503906 C 20.867188 15.433594 22.332031 14.894531 24.175781 14.894531 C 25.957031 14.894531 27.449219 15.460938 28.496094 16.527344 L 33.78125 21.71875 C 34.070312 22.015625 34.445312 22.167969 34.847656 22.167969 C 35.289062 22.167969 35.710938 21.988281 36.039062 21.65625 C 36.691406 20.992188 36.726562 19.945312 36.113281 19.320312 L 30.988281 14.054688 C 29.820312 12.882812 28.355469 12.058594 26.761719 11.683594 C 26.398438 11.601562 26.074219 11.320312 25.964844 10.957031 C 25.859375 10.597656 25.921875 10.203125 26.183594 9.933594 L 31.027344 4.9375 C 31.648438 4.308594 31.613281 3.261719 30.960938 2.597656 C 30.640625 2.265625 30.214844 2.082031 29.769531 2.082031 Z M 29.769531 2.082031 "/>
</g>
</svg>
