<?xml version="1.0" encoding="UTF-8"?>
<svg xmlns="http://www.w3.org/2000/svg" xmlns:xlink="http://www.w3.org/1999/xlink" width="50px" height="50px" viewBox="0 0 50 50" version="1.1">
<g id="surface1">
<path style=" stroke:none;fill-rule:nonzero;fill:rgb(4.313726%,52.549022%,79.215688%);fill-opacity:1;" d="M 11.222656 0 L 38.777344 0 C 44.976562 0 50 5.023438 50 11.222656 L 50 38.777344 C 50 44.976562 44.976562 50 38.777344 50 L 11.222656 50 C 5.023438 50 0 44.976562 0 38.777344 L 0 11.222656 C 0 5.023438 5.023438 0 11.222656 0 Z M 11.222656 0 "/>
<path style=" stroke:none;fill-rule:nonzero;fill:rgb(100%,100%,100%);fill-opacity:1;" d="M 13.855469 20.78125 L 19.050781 20.78125 L 19.050781 37.546875 L 13.855469 37.546875 Z M 16.503906 12.453125 C 18.167969 12.453125 19.515625 13.796875 19.519531 15.460938 C 19.523438 17.121094 18.179688 18.472656 16.515625 18.480469 C 14.855469 18.484375 13.5 17.144531 13.492188 15.484375 C 13.488281 14.679688 13.800781 13.910156 14.367188 13.339844 C 14.933594 12.773438 15.703125 12.453125 16.503906 12.453125 M 22.375 20.78125 L 27.382812 20.78125 L 27.382812 23.070312 C 28.402344 21.328125 30.300781 20.289062 32.316406 20.367188 C 37.511719 20.367188 38.570312 23.832031 38.570312 28.351562 L 38.570312 37.546875 L 33.375 37.546875 L 33.375 29.441406 C 33.375 27.503906 33.375 24.992188 30.671875 24.992188 C 27.96875 24.992188 27.554688 27.105469 27.554688 29.285156 L 27.554688 37.582031 L 22.359375 37.582031 Z M 22.375 20.78125 "/>
</g>
</svg>
